<svg xmlns="http://www.w3.org/2000/svg" width="48" height="48" viewBox="0 0 48 48">
  <g id="help" transform="translate(-1 -1)">
    <path id="Path_162" data-name="Path 162" d="M25,1A24,24,0,1,0,49,25,24.028,24.028,0,0,0,25,1Zm0,46A22,22,0,1,1,47,25,22.025,22.025,0,0,1,25,47Z" fill="#725ac1"/>
    <path id="Path_163" data-name="Path 163" d="M27.929,9H23.072A8.081,8.081,0,0,0,15,17.071V20h2V17.071A6.079,6.079,0,0,1,23.071,11h4.857a6.071,6.071,0,0,1,4.294,10.364L24,29.586V35h2V30.414l7.636-7.636A8.071,8.071,0,0,0,27.929,9Z" fill="#725ac1"/>
    <rect id="Rectangle_175" data-name="Rectangle 175" width="2" height="3" transform="translate(24 38)" fill="#725ac1"/>
  </g>
</svg>
